:version 1.10
:name ASF
:units
  mass 1
  length 1
  angle deg
:documentation
  ASF file generated by Kaydara
:root
  axis xyz
  order  tx ty tz rx ry rz
  position 0 0 0
  orientation 0 0 0
:bonedata
  begin
    id 1
    name LeftUpLegDummy
    direction 1 -2.30186e-007 -8.31532e-007
    length 2.93387
    axis 0 0 0 xyz
  end
  begin
    id 2
    name LeftUpLeg
    direction -1.82929e-007 -1 -1.48925e-009
    length 17.3336
    axis -3.48766 0.00143442 -0.000521554 xyz
    dof rx ry rz
  end
  begin
    id 3
    name LeftLeg
    direction -1.82929e-007 -1 -5.23717e-011
    length 14.9995
    axis 3.68178 -0.00654042 -0.000282425 xyz
    dof rx ry rz
  end
  begin
    id 4
    name LeftFoot
    direction 8.31532e-007 -4.54534e-011 1
    length 6.74421
    axis 1.87234e-006 4.66016e-005 -5.96866e-006 xyz
    dof rx ry rz
  end
  begin
    id 5
    name LeftToes
    direction 0.00818058 -0.00485161 0.999955
    length 3.85048
    axis 1.06247e-005 4.65869e-005 -5.96999e-006 xyz
    dof rx ry rz
  end
  begin
    id 6
    name SpineDummy
    direction -5.8607e-008 0.943407 -0.331637
    length 5.93572
    axis 0 0 0 xyz
  end
  begin
    id 7
    name Spine
    direction -1.04988e-007 0.999988 0.00495137
    length 10.1015
    axis -0.001389 0.000121417 6.61666e-006 xyz
    dof rx ry rz
  end
  begin
    id 8
    name Spine1
    direction 0 0 0
    length 0
    axis -0.001389 0.00012144 6.56766e-006 xyz
    dof rx ry rz
  end
  begin
    id 9
    name RightShoulderDummy
    direction -0.98348 0.17941 -0.0240696
    length 3.59882
    axis -0.001389 0.00012144 6.56766e-006 xyz
  end
  begin
    id 10
    name RightShoulder
    direction -0.978693 0.204882 0.0135597
    length 2.70001
    axis 0.215806 0.000203631 -0.00679732 xyz
    dof rx ry rz
  end
  begin
    id 11
    name RightArm
    direction -1 3.85509e-006 8.31394e-007
    length 10.2459
    axis -23.2009 -0.134239 -0.964098 xyz
    dof rx ry rz
  end
  begin
    id 12
    name RightForeArm
    direction -1 3.85569e-006 8.3129e-007
    length 8.16799
    axis -9.92322 0.0658061 0.17887 xyz
    dof rx ry rz
  end
  begin
    id 13
    name RightHand
    direction -0.992843 -0.0414604 0.112003
    length 5.28593
    axis -0.00960638 0.00330669 -0.185225 xyz
    dof rx ry rz
  end
  begin
    id 14
    name LeftShoulder1Dummy
    direction 0.983523 0.179172 -0.0240748
    length 3.59866
    axis -0.001389 0.00012144 6.56766e-006 xyz
  end
  begin
    id 15
    name LeftShoulder1
    direction 0.978627 0.205195 0.0135605
    length 2.70019
    axis -0.001389 0.00012144 6.57583e-006 xyz
    dof rx ry rz
  end
  begin
    id 16
    name LeftArm
    direction 1 3.51895e-006 -8.60188e-007
    length 10.2459
    axis -23.1894 0.134785 0.967513 xyz
    dof rx ry rz
  end
  begin
    id 17
    name LeftForeArm
    direction 1 3.51921e-006 -7.32029e-007
    length 8.16799
    axis -9.91835 -0.0656957 -0.177789 xyz
    dof rx ry rz
  end
  begin
    id 18
    name LeftHand
    direction 0.992938 -0.0411636 0.11126
    length 5.32135
    axis -0.00960237 -0.00340661 0.185177 xyz
    dof rx ry rz
  end
  begin
    id 19
    name HEadDummy
    direction 1.01974e-006 0.999861 -0.016675
    length 2.99946
    axis -0.001389 0.00012144 6.56766e-006 xyz
  end
  begin
    id 20
    name HEad
    direction -0.0222689 0.980941 0.193023
    length 5.12695
    axis -0.001389 0.00012144 6.56766e-006 xyz
    dof rx ry rz
  end
  begin
    id 21
    name RightUpLegDummy
    direction -1 2.30186e-007 8.31532e-007
    length 2.93387
    axis 0 0 0 xyz
  end
  begin
    id 22
    name RightUpLeg
    direction -1.82966e-007 -1 1.56832e-007
    length 17.3336
    axis -3.4909 -0.000906625 0.00028951 xyz
    dof rx ry rz
  end
  begin
    id 23
    name RightLeg
    direction -1.82786e-007 -1 -1.80317e-007
    length 14.9995
    axis 3.68513 0.0193739 -0.131021 xyz
    dof rx ry rz
  end
  begin
    id 24
    name RightFoot
    direction 8.31721e-007 -4.63324e-011 1
    length 6.74421
    axis 4.81691e-005 -0.120479 -0.188785 xyz
    dof rx ry rz
  end
  begin
    id 25
    name RightToes
    direction 0.00124746 -0.014064 0.9999
    length 3.85082
    axis 0.000481921 0.542163 -0.142575 xyz
    dof rx ry rz
  end
:hierarchy
  begin
    root LeftUpLegDummy SpineDummy RightUpLegDummy
    LeftUpLegDummy LeftUpLeg
    LeftUpLeg LeftLeg
    LeftLeg LeftFoot
    LeftFoot LeftToes
    SpineDummy Spine
    Spine Spine1
    Spine1 RightShoulderDummy LeftShoulder1Dummy HEadDummy
    RightShoulderDummy RightShoulder
    RightShoulder RightArm
    RightArm RightForeArm
    RightForeArm RightHand
    LeftShoulder1Dummy LeftShoulder1
    LeftShoulder1 LeftArm
    LeftArm LeftForeArm
    LeftForeArm LeftHand
    HEadDummy HEad
    RightUpLegDummy RightUpLeg
    RightUpLeg RightLeg
    RightLeg RightFoot
    RightFoot RightToes
  end

:SAMPLES-PER-SECOND 30
:FULLY-SPECIFIED
:DEGREES
196
root  1.05274 34.1232 16.7909 3.70164 24.9973 -0.293889
LeftUpLeg  -7.79184 12.4561 0.864733
LeftLeg  12.9343 10.8804 1.75981
LeftFoot  -1.65648 -0.00358844 -0.311823
LeftToes  -13.2881 1.92152e-006 4.03786e-008
Spine  2.28034 1.30995 -1.86287
Spine1  4.18568 2.81204 -3.70309
RightShoulder  0.0478501 3.21243 6.13086
RightArm  -21.7743 0.0924301 70.0223
RightForeArm  20.368 55.9706 15.189
RightHand  4.84437 -19.4646 -27.3302
LeftShoulder1  0.0235369 1.49532 -10.4953
LeftArm  -20.678 16.838 -64.8098
LeftForeArm  26.8916 -17.2428 -3.13124
LeftHand  0.0867038 3.23647 2.69257
HEad  -2.16421 -28.6521 2.5994
RightUpLeg  -14.5937 -13.371 -5.79853
RightLeg  12.2283 8.09406 1.21417
RightFoot  9.0021 -0.0769206 1.35456
RightToes  -33.9441 -0.166755 -0.284439
197
root  1.0991 34.1581 16.6981 3.70344 23.573 0.059323
LeftUpLeg  -7.44781 13.1347 0.392174
LeftLeg  12.5805 11.6682 1.81229
LeftFoot  -1.40936 -0.00348914 -0.283686
LeftToes  -12.9298 1.92152e-006 4.03786e-008
Spine  2.30224 1.54693 -2.06382
Spine1  4.19308 3.36027 -4.20836
RightShoulder  0.0435386 2.41487 4.31167
RightArm  -15.9902 3.08796 68.7002
RightForeArm  25.2569 66.2379 23.7478
RightHand  5.20996 -20.4124 -27.9857
LeftShoulder1  0.0216489 1.49599 -10.0391
LeftArm  -20.974 17.6563 -64.9479
LeftForeArm  26.1502 -18.9689 -3.46827
LeftHand  0.0904632 2.68314 3.48238
HEad  -2.61875 -27.5974 2.48661
RightUpLeg  -14.5702 -12.6147 -6.08427
RightLeg  11.5885 8.58612 1.19004
RightFoot  9.50784 -0.0937861 1.50515
RightToes  -33.2179 -0.167058 -0.285184
198
root  1.12069 34.1777 16.6243 3.82799 22.4119 0.336989
LeftUpLeg  -7.24653 13.6935 0.0263668
LeftLeg  12.1387 12.2352 1.80339
LeftFoot  -1.21487 -0.00269936 -0.254614
LeftToes  -12.549 1.92152e-006 4.03786e-008
Spine  2.40596 1.69449 -2.1766
Spine1  4.35658 3.73293 -4.53785
RightShoulder  0.0414813 2.1917 2.74459
RightArm  -14.4617 4.19224 68.8844
RightForeArm  45.8158 75.1522 42.117
RightHand  4.59941 -18.9552 -26.6734
LeftShoulder1  0.0205467 1.6104 -9.62105
LeftArm  -20.9283 18.0072 -65.1676
LeftForeArm  25.276 -20.0239 -3.67794
LeftHand  0.0767525 1.95404 4.11371
HEad  -3.32699 -26.2398 2.12736
RightUpLeg  -14.5805 -11.7798 -6.29721
RightLeg  10.8209 8.79234 1.09915
RightFoot  10.0243 -0.108845 1.61846
RightToes  -33.3283 -0.167843 -0.285687
199
root  1.11344 34.1945 16.621 4.22525 22.4671 0.515703
LeftUpLeg  -7.42699 13.6268 -0.180687
LeftLeg  11.7638 12.1505 1.71064
LeftFoot  -0.904488 -0.000349464 -0.185079
LeftToes  -12.7667 1.92152e-006 4.03786e-008
Spine  2.46775 1.58935 -2.19824
Spine1  4.50291 3.51472 -4.57833
RightShoulder  0.041193 1.28491 2.51082
RightArm  -14.196 1.77898 70.5589
RightForeArm  83.449 79.52 74.4748
RightHand  3.51806 -15.5535 -24.9667
LeftShoulder1  0.0195927 1.75877 -9.30462
LeftArm  -20.6638 17.7207 -65.5414
LeftForeArm  25.4974 -20.3224 -3.73765
LeftHand  0.0745005 1.78693 4.3874
HEad  -4.44108 -25.5298 2.46488
RightUpLeg  -14.3595 -12.121 -6.34528
RightLeg  9.6213 8.99929 0.934832
RightFoot  10.488 -0.123077 1.71835
RightToes  -33.456 -0.169198 -0.28612
200
root  1.06739 34.2027 16.7 4.82533 24.1174 0.495365
LeftUpLeg  -7.96441 13.081 -0.122096
LeftLeg  11.3873 11.0714 1.48705
LeftFoot  -0.545275 -0.000466986 -0.0981464
LeftToes  -13.2191 1.92152e-006 4.03786e-008
Spine  2.3377 1.15943 -2.06547
Spine1  4.32101 2.56299 -4.21608
RightShoulder  0.0415871 1.63564 3.22283
RightArm  -16.7775 -6.04265 73.8322
RightForeArm  97.4107 79.8436 84.5267
RightHand  2.99199 -11.2828 -29.2325
LeftShoulder1  0.0204513 1.65475 -9.29396
LeftArm  -19.941 17.3578 -65.8358
LeftForeArm  25.8643 -20.0238 -3.67776
LeftHand  0.0868212 2.10524 4.33835
HEad  -4.53254 -25.6785 3.12548
RightUpLeg  -13.8106 -13.0348 -6.21909
RightLeg  8.10146 8.22993 0.636185
RightFoot  10.7746 -0.115364 1.60072
RightToes  -33.837 -0.171216 -0.28666
201
root  1.02025 34.1802 16.8048 5.29911 26.2583 0.387993
LeftUpLeg  -8.58438 12.2621 0.0685914
LeftLeg  11.3733 9.81691 1.31781
LeftFoot  -0.480004 -0.00295043 -0.0763984
LeftToes  -13.7006 1.92152e-006 4.03786e-008
Spine  2.19366 0.720683 -1.81228
Spine1  4.09165 1.57719 -3.584
RightShoulder  0.0440304 2.52826 5.07537
RightArm  -22.6111 -12.4682 76.7606
RightForeArm  56.0907 76.1702 46.2707
RightHand  3.32485 -12.3235 -29.7095
LeftShoulder1  0.0269822 1.5277 -9.86482
LeftArm  -19.1058 16.6906 -65.9891
LeftForeArm  25.8894 -19.4196 -3.55746
LeftHand  0.0927256 2.56482 3.76017
HEad  -4.13484 -26.4582 3.54387
RightUpLeg  -13.2598 -14.0134 -6.09602
RightLeg  7.12026 7.14402 0.430116
RightFoot  10.6803 -0.0933174 1.37575
RightToes  -34.4772 -0.175936 -0.287482
202
root  1.00288 34.1305 16.8618 5.36048 27.6353 0.291054
LeftUpLeg  -8.98437 11.5351 0.222025
LeftLeg  11.8612 9.24415 1.32137
LeftFoot  -0.863852 -0.00317591 -0.135747
LeftToes  -13.706 1.92152e-006 4.03786e-008
Spine  2.09344 0.485685 -1.55887
Spine1  3.882 1.05408 -3.0144
RightShoulder  0.0479317 3.49524 7.17517
RightArm  -27.2271 -10.1209 75.7746
RightForeArm  18.0605 61.0755 18.6867
RightHand  2.86741 -16.1006 -19.6923
LeftShoulder1  0.0333886 1.51233 -10.6888
LeftArm  -18.761 16.1849 -66.1572
LeftForeArm  25.6466 -18.7872 -3.43265
LeftHand  0.0853889 2.73401 3.19903
HEad  -2.60781 -27.1437 3.59547
RightUpLeg  -13.1587 -13.9376 -6.14624
RightLeg  7.5136 5.77333 0.387757
RightFoot  10.2858 -0.0637059 1.08529
RightToes  -35.5709 -0.184103 -0.28876
203
root  1.02075 34.1009 16.8911 5.05837 28.0094 0.161127
LeftUpLeg  -8.95922 11.539 0.378241
LeftLeg  12.3845 8.94803 1.36244
LeftFoot  -1.28022 -0.00221534 -0.198293
LeftToes  -13.6672 1.92152e-006 4.03786e-008
Spine  1.98225 0.655397 -1.38578
Spine1  3.63435 1.38415 -2.65497
RightShoulder  0.0486923 4.78058 7.09584
RightArm  -29.7769 -5.28194 74.8041
RightForeArm  17.6834 49.3626 11.881
RightHand  3.75263 -15.537 -26.6253
LeftShoulder1  0.0362624 1.20906 -10.7307
LeftArm  -18.2165 16.063 -66.8229
LeftForeArm  24.9439 -18.0136 -3.28138
LeftHand  0.0877882 2.81687 3.19155
HEad  -0.024307 -27.6778 2.85907
RightUpLeg  -13.1305 -12.7794 -6.27162
RightLeg  8.33732 4.30225 0.351555
RightFoot  9.87039 -0.0361124 0.795704
RightToes  -35.899 -0.186579 -0.290804
204
root  1.05709 34.1196 16.916 4.67348 28.1263 0.198079
LeftUpLeg  -8.62945 11.8804 0.41165
LeftLeg  12.6584 8.50521 1.33691
LeftFoot  -1.33089 -0.00259634 -0.198168
LeftToes  -13.7678 1.92152e-006 4.03786e-008
Spine  1.93124 0.871753 -1.46485
Spine1  3.54103 1.81721 -2.81685
RightShoulder  0.0443626 4.92341 6.78151
RightArm  -31.367 -1.17577 72.7903
RightForeArm  21.8811 44.9547 10.1555
RightHand  3.98351 -14.5685 -30.0572
LeftShoulder1  0.0383914 1.27332 -10.1406
LeftArm  -17.6317 15.5646 -67.4327
LeftForeArm  25.2697 -17.1112 -3.10637
LeftHand  0.090227 3.14506 2.90935
HEad  2.10376 -28.0753 2.68737
RightUpLeg  -12.7325 -12.1833 -6.4897
RightLeg  8.58042 3.61088 0.310738
RightFoot  9.78204 -0.0246312 0.66534
RightToes  -35.848 -0.188148 -0.291969
205
root  1.09483 34.1395 16.9402 4.47521 28.4249 0.29387
LeftUpLeg  -8.46332 11.9491 0.3486
LeftLeg  12.8778 8.19052 1.31976
LeftFoot  -1.3316 -0.0022264 -0.191593
LeftToes  -13.6482 1.92152e-006 4.03786e-008
Spine  1.83991 1.03103 -1.51214
Spine1  3.36405 2.14259 -2.92448
RightShoulder  0.0398521 4.33339 6.52259
RightArm  -27.0187 -1.18062 69.4567
RightForeArm  24.4544 51.6112 12.8951
RightHand  3.85723 -14.9932 -28.3254
LeftShoulder1  0.0398499 1.18037 -9.57562
LeftArm  -17.3455 15.556 -67.8772
LeftForeArm  26.0408 -16.6919 -3.02546
LeftHand  0.0891905 3.41235 2.6183
HEad  3.28934 -28.2469 2.6679
RightUpLeg  -12.443 -12.7813 -6.63743
RightLeg  8.74365 3.88401 0.34526
RightFoot  9.68315 -0.0262528 0.702335
RightToes  -35.7284 -0.189628 -0.293166
